<svg xmlns="http://www.w3.org/2000/svg" viewBox="0 0 140.85 74.05"><defs><style>.cls-1{fill:#f2f2f2;}.cls-2,.cls-3{fill:#1a1a1a;}.cls-3{font-size:19px;font-family:NotoSansCJKkr-Regular-KSCpc-EUC-H, Noto Sans CJK KR;letter-spacing:-0.05em;}</style></defs><g id="레이어_2" data-name="레이어 2"><g id="레이어_1-2" data-name="레이어 1"><rect class="cls-1" width="140.85" height="65.46"/><path class="cls-2" d="M13.77,25.42V23.9h2V12.8h-2V11.29h7.09a5.25,5.25,0,0,1,2.19.44A3.65,3.65,0,0,1,24.54,13a3.26,3.26,0,0,1,.53,1.87V15a3.1,3.1,0,0,1-.38,1.63,3.24,3.24,0,0,1-.91,1,4.28,4.28,0,0,1-1,.51v.28a3.25,3.25,0,0,1,1.05.48,2.79,2.79,0,0,1,.92,1,3.2,3.2,0,0,1,.37,1.63v.2A3.39,3.39,0,0,1,23,25a5.17,5.17,0,0,1-2.18.44Zm3.67-7.9h3.27a2.89,2.89,0,0,0,1.94-.61,2,2,0,0,0,.73-1.63v-.2a2.05,2.05,0,0,0-.72-1.64,2.91,2.91,0,0,0-1.95-.62H17.44Zm0,6.36h3.21a3,3,0,0,0,2-.62,2.17,2.17,0,0,0,.71-1.7v-.18a2.17,2.17,0,0,0-.71-1.7,3,3,0,0,0-2-.62H17.44Z"/><path class="cls-2" d="M28,29.45V28h5.65a.53.53,0,0,0,.59-.61V23.84H34a3,3,0,0,1-1.69,1.51,5,5,0,0,1-1.68.25,4.17,4.17,0,0,1-2-.47,3.4,3.4,0,0,1-1.42-1.37,4.45,4.45,0,0,1-.51-2.22v-6H28.3v5.87A2.73,2.73,0,0,0,29,23.54a2.86,2.86,0,0,0,2,.66,3.1,3.1,0,0,0,2.32-.92,3.83,3.83,0,0,0,.91-2.77v-5h1.59V27.72A1.76,1.76,0,0,1,35.4,29a1.79,1.79,0,0,1-1.33.46Z"/><path class="cls-2" d="M47.4,25.7a5.5,5.5,0,0,1-4-1.46A5.71,5.71,0,0,1,41.89,20V16.74a5.69,5.69,0,0,1,1.49-4.27,5.46,5.46,0,0,1,4-1.46,5.08,5.08,0,0,1,3.84,1.39,5.28,5.28,0,0,1,1.34,3.81v.1H50.91v-.16a3.93,3.93,0,0,0-.86-2.61,3.27,3.27,0,0,0-2.65-1,3.63,3.63,0,0,0-2.81,1.1,4.4,4.4,0,0,0-1,3.08V20a4.37,4.37,0,0,0,1,3.07,3.6,3.6,0,0,0,2.81,1.1,3.27,3.27,0,0,0,2.65-1,3.94,3.94,0,0,0,.86-2.62v-.32h1.67v.26a5.29,5.29,0,0,1-1.34,3.82A5.12,5.12,0,0,1,47.4,25.7Z"/><path class="cls-2" d="M58.86,25.7a5.3,5.3,0,0,1-2.63-.63,4.31,4.31,0,0,1-1.78-1.76,5.39,5.39,0,0,1-.64-2.7v-.26a5.37,5.37,0,0,1,.64-2.68,4.36,4.36,0,0,1,1.78-1.78,5.8,5.8,0,0,1,5.26,0,4.42,4.42,0,0,1,1.78,1.78,5.47,5.47,0,0,1,.63,2.68v.26a5.5,5.5,0,0,1-.63,2.7,4.37,4.37,0,0,1-1.78,1.76A5.33,5.33,0,0,1,58.86,25.7Zm0-1.43a3.29,3.29,0,0,0,2.51-1,3.78,3.78,0,0,0,.94-2.7v-.18a3.74,3.74,0,0,0-.94-2.69,3.64,3.64,0,0,0-5,0,3.7,3.7,0,0,0-1,2.69v.18a3.74,3.74,0,0,0,1,2.7A3.3,3.3,0,0,0,58.86,24.27Z"/><path class="cls-2" d="M65.76,25.42V15.55h1.56v1.67h.28a3.28,3.28,0,0,1,1.1-1.28A3.85,3.85,0,0,1,71,15.37a4.2,4.2,0,0,1,2,.46,3.54,3.54,0,0,1,1.4,1.37,4.42,4.42,0,0,1,.52,2.24v6H73.31V19.56a2.77,2.77,0,0,0-.74-2.14,2.85,2.85,0,0,0-2-.66,3.11,3.11,0,0,0-2.34.93,3.86,3.86,0,0,0-.89,2.76v5Z"/><path class="cls-2" d="M80.47,25.42a1.6,1.6,0,0,1-1.75-1.74V16.94h-3V15.55h3V12h1.59v3.51h3.23v1.39H80.31v6.5a.53.53,0,0,0,.59.6h2.2v1.38Z"/><path class="cls-2" d="M85.92,14a1.18,1.18,0,0,1-.87-.34,1.15,1.15,0,0,1-.36-.87,1.25,1.25,0,0,1,2.1-.89,1.21,1.21,0,0,1,.34.89A1.16,1.16,0,0,1,85.92,14Zm-.8,11.41V15.55h1.59v9.87Z"/><path class="cls-2" d="M89.05,25.42V15.55h1.56v1.67h.28A3.28,3.28,0,0,1,92,15.94a3.85,3.85,0,0,1,2.29-.57,4.2,4.2,0,0,1,2,.46,3.54,3.54,0,0,1,1.4,1.37,4.42,4.42,0,0,1,.52,2.24v6H96.6V19.56a2.77,2.77,0,0,0-.74-2.14,2.85,2.85,0,0,0-2-.66,3.11,3.11,0,0,0-2.34.93,3.86,3.86,0,0,0-.89,2.76v5Z"/><path class="cls-2" d="M104.94,25.7a5.23,5.23,0,0,1-2.63-.64,4.41,4.41,0,0,1-1.75-1.78,5.49,5.49,0,0,1-.63-2.67v-.24a5.47,5.47,0,0,1,.63-2.68,4.39,4.39,0,0,1,1.73-1.79,5.07,5.07,0,0,1,2.54-.64,5,5,0,0,1,2.47.6,4.27,4.27,0,0,1,1.67,1.7,5.33,5.33,0,0,1,.61,2.61v.72h-8.06a3.49,3.49,0,0,0,1,2.5,3.45,3.45,0,0,0,2.43.9,2.91,2.91,0,0,0,2-.59,3.85,3.85,0,0,0,1-1.39l1.38.66a6.22,6.22,0,0,1-.84,1.25,4.28,4.28,0,0,1-1.39,1.05A4.88,4.88,0,0,1,104.94,25.7Zm-3.39-6.12H108a3,3,0,0,0-.94-2.14,3.16,3.16,0,0,0-2.19-.76,3.24,3.24,0,0,0-2.22.76A3.45,3.45,0,0,0,101.55,19.58Z"/><path class="cls-2" d="M111.35,25.42V15.55h1.56v1.67h.28a3.28,3.28,0,0,1,1.1-1.28,3.85,3.85,0,0,1,2.29-.57,4.2,4.2,0,0,1,2,.46A3.54,3.54,0,0,1,120,17.2a4.42,4.42,0,0,1,.53,2.24v6h-1.6V19.56a2.74,2.74,0,0,0-.74-2.14,2.85,2.85,0,0,0-2-.66,3.07,3.07,0,0,0-2.33.93,3.82,3.82,0,0,0-.9,2.76v5Z"/><path class="cls-2" d="M126.07,25.42a1.76,1.76,0,0,1-1.31-.47,1.74,1.74,0,0,1-.45-1.27V16.94h-3V15.55h3V12h1.59v3.51h3.23v1.39H125.9v6.5a.53.53,0,0,0,.59.6h2.2v1.38Z"/><text class="cls-3" transform="translate(12.82 54.14)">대륙순</text></g></g></svg>