<svg xmlns="http://www.w3.org/2000/svg" viewBox="0 0 140.85 74.05"><defs><style>.cls-1{fill:#f2f2f2;}.cls-2,.cls-3{fill:#1a1a1a;}.cls-3{font-size:19px;font-family:NotoSansCJKkr-Regular-KSCpc-EUC-H, Noto Sans CJK KR;letter-spacing:-0.05em;}</style></defs><g id="레이어_2" data-name="레이어 2"><g id="레이어_1-2" data-name="레이어 1"><rect class="cls-1" width="140.85" height="65.46"/><path class="cls-2" d="M14.44,25.42V11.29h1.69v6.27h6.62V11.29h1.7V25.42h-1.7V19.1H16.13v6.32Z"/><path class="cls-2" d="M27.54,14a1.2,1.2,0,0,1-.88-.34,1.15,1.15,0,0,1-.36-.87,1.18,1.18,0,0,1,.36-.89,1.2,1.2,0,0,1,.88-.34,1.15,1.15,0,0,1,.86.34,1.21,1.21,0,0,1,.35.89,1.18,1.18,0,0,1-.35.87A1.15,1.15,0,0,1,27.54,14Zm-.81,11.41V15.55h1.59v9.87Z"/><path class="cls-2" d="M30.18,20.53v-.28a5.35,5.35,0,0,1,.63-2.67,4.41,4.41,0,0,1,1.69-1.71,4.69,4.69,0,0,1,2.34-.61,4,4,0,0,1,2.39.6,4.18,4.18,0,0,1,1.25,1.32h.28V15.55h1.51V27.72A1.8,1.8,0,0,1,39.83,29a1.71,1.71,0,0,1-1.29.46H31.83V28h6.28a.54.54,0,0,0,.61-.61V23.68h-.29a3.56,3.56,0,0,1-.68.87,3.48,3.48,0,0,1-1.15.69,4.74,4.74,0,0,1-1.76.28,4.69,4.69,0,0,1-2.34-.61,4.37,4.37,0,0,1-1.69-1.72A5.37,5.37,0,0,1,30.18,20.53Zm5.09,3.57a3.37,3.37,0,0,0,2.49-1,3.64,3.64,0,0,0,1-2.67v-.16a3.59,3.59,0,0,0-1-2.67,3.37,3.37,0,0,0-2.49-1,3.44,3.44,0,0,0-2.5,1,3.56,3.56,0,0,0-1,2.67v.16a3.61,3.61,0,0,0,1,2.67A3.44,3.44,0,0,0,35.27,24.1Z"/><path class="cls-2" d="M42.61,25.42V11.29h1.6v5.83h.28a2.76,2.76,0,0,1,.62-.84,3.23,3.23,0,0,1,1.06-.65,4.47,4.47,0,0,1,1.67-.26,4.09,4.09,0,0,1,2,.47,3.61,3.61,0,0,1,1.4,1.37,4.36,4.36,0,0,1,.53,2.23v6h-1.6V19.56a2.77,2.77,0,0,0-.74-2.14,2.85,2.85,0,0,0-2-.66,3.07,3.07,0,0,0-2.33.93,3.82,3.82,0,0,0-.9,2.76v5Z"/><path class="cls-2" d="M56.72,25.42l4.36-14.13h3l4.36,14.13H66.67l-1.09-3.58h-6l-1.09,3.58ZM60,20.31h5.15l-2.43-8h-.28Z"/><path class="cls-2" d="M69.6,25.42V15.55h1.55v1.23h.28a2.83,2.83,0,0,1,.93-1,3.16,3.16,0,0,1,1.82-.44,3.12,3.12,0,0,1,1.86.5,3,3,0,0,1,1,1.23h.29a3.13,3.13,0,0,1,1-1.23,3.22,3.22,0,0,1,1.94-.5,3.6,3.6,0,0,1,1.74.4,2.93,2.93,0,0,1,1.18,1.16,3.57,3.57,0,0,1,.43,1.81v6.68H82.11V18.88a2.11,2.11,0,0,0-.58-1.57,2.16,2.16,0,0,0-1.6-.57,2.41,2.41,0,0,0-1.79.7,2.8,2.8,0,0,0-.69,2v5.94h-1.6V18.88a2.15,2.15,0,0,0-.57-1.57,2.2,2.2,0,0,0-1.61-.57,2.39,2.39,0,0,0-1.78.7,2.76,2.76,0,0,0-.7,2v5.94Z"/><path class="cls-2" d="M90.5,25.7a5.36,5.36,0,0,1-2.63-.63,4.43,4.43,0,0,1-1.78-1.76,5.5,5.5,0,0,1-.63-2.7v-.26a5.47,5.47,0,0,1,.63-2.68,4.48,4.48,0,0,1,1.78-1.78,5.83,5.83,0,0,1,5.27,0,4.4,4.4,0,0,1,1.77,1.78,5.37,5.37,0,0,1,.64,2.68v.26a5.39,5.39,0,0,1-.64,2.7,4.35,4.35,0,0,1-1.77,1.76A5.37,5.37,0,0,1,90.5,25.7Zm0-1.43a3.33,3.33,0,0,0,2.52-1,3.82,3.82,0,0,0,.94-2.7v-.18A3.78,3.78,0,0,0,93,17.7a3.65,3.65,0,0,0-5,0,3.74,3.74,0,0,0-1,2.69v.18a3.78,3.78,0,0,0,1,2.7A3.31,3.31,0,0,0,90.5,24.27Z"/><path class="cls-2" d="M101.18,25.6a4.24,4.24,0,0,1-2-.47,3.35,3.35,0,0,1-1.41-1.38,4.51,4.51,0,0,1-.51-2.23v-6h1.59V21.4a2.76,2.76,0,0,0,.74,2.14,2.86,2.86,0,0,0,2,.66,3.1,3.1,0,0,0,2.32-.92,3.83,3.83,0,0,0,.9-2.77v-5h1.6v9.87h-1.56V23.74h-.28A3.23,3.23,0,0,1,103.48,25,3.81,3.81,0,0,1,101.18,25.6Z"/><path class="cls-2" d="M108.75,25.42V15.55h1.55v1.67h.29a3.28,3.28,0,0,1,1.1-1.28,3.83,3.83,0,0,1,2.29-.57,4.2,4.2,0,0,1,2,.46,3.54,3.54,0,0,1,1.4,1.37,4.42,4.42,0,0,1,.52,2.24v6H116.3V19.56a2.77,2.77,0,0,0-.74-2.14,2.86,2.86,0,0,0-2-.66,3.1,3.1,0,0,0-2.33.93,3.82,3.82,0,0,0-.9,2.76v5Z"/><path class="cls-2" d="M123.46,25.42a1.6,1.6,0,0,1-1.75-1.74V16.94h-3V15.55h3V12h1.59v3.51h3.23v1.39H123.3v6.5a.53.53,0,0,0,.59.6h2.2v1.38Z"/><text class="cls-3" transform="translate(12.82 54.14)">높은 임금순</text></g></g></svg>