<svg xmlns="http://www.w3.org/2000/svg" viewBox="0 0 1719.19 567.5"><defs><style>.cls-1{fill:#f2f2f2;}</style></defs><g id="레이어_2" data-name="레이어 2"><g id="레이어_1-2" data-name="레이어 1"><polygon class="cls-1" points="1666.5 0 1575.7 536.69 1565.97 536.69 1448.42 0 1352.75 0 1235.2 536.69 1225.47 536.69 1134.67 0 1081.97 0 1081.97 0 1036.31 0 864.44 536.69 854.71 536.69 682.84 0 637.22 0 637.22 0 584.52 0 493.72 536.69 484 536.69 366.44 0 270.78 0 153.22 536.69 143.5 536.69 52.7 0 0 0 99.72 567.5 196.19 567.5 313.75 30.81 323.48 30.81 441.03 567.5 537.5 567.5 631.81 30.81 641.49 30.81 813.36 567.5 905.79 567.5 1077.66 30.81 1087.38 30.81 1181.69 567.5 1278.16 567.5 1395.72 30.81 1405.45 30.81 1523 567.5 1619.48 567.5 1719.19 0 1666.5 0"/></g></g></svg>