<svg xmlns="http://www.w3.org/2000/svg" viewBox="0 0 406.56 208.61"><defs><style>.cls-1{fill:#9a68eb;}.cls-2{fill:#1a1a1a;}</style></defs><g id="레이어_2" data-name="레이어 2"><g id="레이어_1-2" data-name="레이어 1"><rect class="cls-1" width="406.56" height="208.61"/><path class="cls-2" d="M27.06,84.53a3.53,3.53,0,0,1-2.59-1,3.74,3.74,0,0,1-1-2.8V78.68a3.74,3.74,0,0,1,1-2.8,3.53,3.53,0,0,1,2.59-1,3.24,3.24,0,0,1,2.47.9,3.47,3.47,0,0,1,.85,2.47v.06h-.85v-.09a2.81,2.81,0,0,0-.6-1.86,2.29,2.29,0,0,0-1.87-.72,2.59,2.59,0,0,0-2,.78,3.11,3.11,0,0,0-.71,2.19v2.14a3.12,3.12,0,0,0,.71,2.2,2.59,2.59,0,0,0,2,.77,2.29,2.29,0,0,0,1.87-.71,2.81,2.81,0,0,0,.6-1.86V81h.85v.17a3.47,3.47,0,0,1-.85,2.47A3.24,3.24,0,0,1,27.06,84.53Z"/><path class="cls-2" d="M34.55,84.53a3.39,3.39,0,0,1-1.71-.42A2.75,2.75,0,0,1,31.71,83a3.54,3.54,0,0,1-.41-1.73v-.16a3.61,3.61,0,0,1,.41-1.74,2.81,2.81,0,0,1,1.13-1.16,3.69,3.69,0,0,1,3.42,0,2.89,2.89,0,0,1,1.14,1.16,3.6,3.6,0,0,1,.4,1.74v.16A3.54,3.54,0,0,1,37.4,83a2.83,2.83,0,0,1-1.14,1.16A3.39,3.39,0,0,1,34.55,84.53Zm0-.71a2.32,2.32,0,0,0,1.8-.72A2.72,2.72,0,0,0,37,81.19v-.11a2.7,2.7,0,0,0-.66-1.9,2.6,2.6,0,0,0-3.59,0,2.7,2.7,0,0,0-.66,1.9v.11a2.72,2.72,0,0,0,.66,1.91A2.33,2.33,0,0,0,34.55,83.82Z"/><path class="cls-2" d="M39.15,84.35V77.93h.76v1.19h.16a2.41,2.41,0,0,1,.78-.92,2.58,2.58,0,0,1,1.57-.4,2.74,2.74,0,0,1,1.28.29,2.13,2.13,0,0,1,.93.88A2.76,2.76,0,0,1,45,80.44v3.91h-.79V80.49A1.91,1.91,0,0,0,43.66,79a2,2,0,0,0-1.41-.46,2.27,2.27,0,0,0-1.65.65,2.69,2.69,0,0,0-.66,2v3.21Z"/><path class="cls-2" d="M48.71,84.35a1,1,0,0,1-.77-.27,1,1,0,0,1-.26-.74v-4.7H45.62v-.71h2.06v-2.4h.79v2.4h2.24v.71H48.47v4.6a.34.34,0,0,0,.39.39h1.51v.72Z"/><path class="cls-2" d="M52.22,76.82a.68.68,0,0,1-.69-.69.65.65,0,0,1,.2-.49.66.66,0,0,1,.49-.19.64.64,0,0,1,.49.19.65.65,0,0,1,.2.49.66.66,0,0,1-.2.49A.65.65,0,0,1,52.22,76.82Zm-.4,7.53V77.93h.79v6.42Z"/><path class="cls-2" d="M54.28,84.35V77.93H55v1.19h.16A2.41,2.41,0,0,1,56,78.2a2.6,2.6,0,0,1,1.57-.4,2.78,2.78,0,0,1,1.29.29,2.24,2.24,0,0,1,.93.88,2.86,2.86,0,0,1,.34,1.47v3.91h-.79V80.49A1.91,1.91,0,0,0,58.79,79a2,2,0,0,0-1.41-.46,2.27,2.27,0,0,0-1.65.65,2.69,2.69,0,0,0-.66,2v3.21Z"/><path class="cls-2" d="M64.66,84.53a3.37,3.37,0,0,1-1.72-.42A2.92,2.92,0,0,1,61.79,83a3.62,3.62,0,0,1-.41-1.73v-.16a3.61,3.61,0,0,1,.41-1.74,3,3,0,0,1,1.13-1.16,3.21,3.21,0,0,1,1.65-.42,3.34,3.34,0,0,1,1.59.38,2.76,2.76,0,0,1,1.09,1.08,3.43,3.43,0,0,1,.39,1.69v.42H62.18a2.51,2.51,0,0,0,.73,1.85,2.42,2.42,0,0,0,1.75.66,2.13,2.13,0,0,0,1.39-.41,2.73,2.73,0,0,0,.76-1l.71.32a3.57,3.57,0,0,1-.54.85,2.78,2.78,0,0,1-.91.69A3.22,3.22,0,0,1,64.66,84.53Zm-2.47-3.91h4.65a2.2,2.2,0,0,0-.68-1.6,2.24,2.24,0,0,0-1.59-.56A2.28,2.28,0,0,0,63,79,2.44,2.44,0,0,0,62.19,80.62Z"/><path class="cls-2" d="M68.94,84.35V77.93h.76v1.19h.16a2.41,2.41,0,0,1,.78-.92,2.58,2.58,0,0,1,1.57-.4,2.74,2.74,0,0,1,1.28.29,2.13,2.13,0,0,1,.93.88,2.76,2.76,0,0,1,.35,1.47v3.91H74V80.49A1.94,1.94,0,0,0,73.45,79,2,2,0,0,0,72,78.51a2.27,2.27,0,0,0-1.65.65,2.69,2.69,0,0,0-.66,2v3.21Z"/><path class="cls-2" d="M78.5,84.35a1,1,0,0,1-.78-.27,1,1,0,0,1-.25-.74v-4.7H75.41v-.71h2.06v-2.4h.79v2.4H80.5v.71H78.26v4.6a.35.35,0,0,0,.4.39h1.5v.72Z"/><path class="cls-2" d="M208.8,87.2V71h9.77v1.34h-8.29v6.06h7.65v1.34h-7.65v6.1h8.39V87.2Z"/><path class="cls-2" d="M225.11,87.43a5,5,0,0,1-2.23-.51,3.92,3.92,0,0,1-1.64-1.54,4.91,4.91,0,0,1-.61-2.57V76H222v6.74a3.37,3.37,0,0,0,.92,2.65,3.58,3.58,0,0,0,2.47.82A3.94,3.94,0,0,0,228.3,85a4.69,4.69,0,0,0,1.16-3.46V76h1.38V87.2H229.5V85.12h-.28a4.16,4.16,0,0,1-1.36,1.6A4.56,4.56,0,0,1,225.11,87.43Z"/><path class="cls-2" d="M233.75,87.2V76h1.35v1.41h.27a2.21,2.21,0,0,1,1-1.11,3.72,3.72,0,0,1,1.77-.35h1.32v1.3h-1.48a2.85,2.85,0,0,0-2,.71,3,3,0,0,0-.76,2.24v7Z"/><path class="cls-2" d="M245.84,87.52a5.89,5.89,0,0,1-3-.73,5,5,0,0,1-2-2,6.29,6.29,0,0,1-.7-3v-.28a6.34,6.34,0,0,1,.7-3,5,5,0,0,1,2-2,6.49,6.49,0,0,1,6,0,5,5,0,0,1,2,2,6.34,6.34,0,0,1,.7,3v.28a6.29,6.29,0,0,1-.7,3,5,5,0,0,1-2,2A5.89,5.89,0,0,1,245.84,87.52Zm0-1.25A4,4,0,0,0,249,85a4.74,4.74,0,0,0,1.16-3.33v-.19A4.75,4.75,0,0,0,249,78.15a4.53,4.53,0,0,0-6.27,0,4.71,4.71,0,0,0-1.17,3.34v.19A4.7,4.7,0,0,0,242.71,85,4.06,4.06,0,0,0,245.84,86.27Z"/><path class="cls-2" d="M253.88,91.82V76h1.34v2h.28A4.86,4.86,0,0,1,257,76.37a5,5,0,0,1,2.88-.73,5.4,5.4,0,0,1,2.73.71,5.21,5.21,0,0,1,1.95,2,6.25,6.25,0,0,1,.73,3.09v.28a6.3,6.3,0,0,1-.72,3.09,5.08,5.08,0,0,1-1.94,2,5.41,5.41,0,0,1-2.75.7,5.88,5.88,0,0,1-2.09-.33,4.23,4.23,0,0,1-1.41-.87,4.89,4.89,0,0,1-.85-1.09h-.27v6.59Zm5.69-5.55a4.1,4.1,0,0,0,3.1-1.22,4.61,4.61,0,0,0,1.19-3.37v-.19a4.59,4.59,0,0,0-1.19-3.37,4.52,4.52,0,0,0-6.2,0,4.6,4.6,0,0,0-1.2,3.37v.19a4.61,4.61,0,0,0,1.2,3.37A4.13,4.13,0,0,0,259.57,86.27Z"/><path class="cls-2" d="M272.83,87.52a6,6,0,0,1-3-.73,5,5,0,0,1-2-2,6.23,6.23,0,0,1-.72-3v-.28a6.24,6.24,0,0,1,.72-3,5.13,5.13,0,0,1,2-2,6.11,6.11,0,0,1,5.66-.07,4.72,4.72,0,0,1,1.91,1.9,5.92,5.92,0,0,1,.69,2.94v.74h-9.56a4.44,4.44,0,0,0,1.28,3.25,4.3,4.3,0,0,0,3.06,1.14,3.77,3.77,0,0,0,2.44-.71,4.81,4.81,0,0,0,1.33-1.76l1.25.55a7.28,7.28,0,0,1-1,1.5,4.9,4.9,0,0,1-1.59,1.2A5.69,5.69,0,0,1,272.83,87.52Zm-4.32-6.84h8.13a3.85,3.85,0,0,0-1.18-2.81,4,4,0,0,0-2.79-1,4.09,4.09,0,0,0-2.8,1A4.42,4.42,0,0,0,268.51,80.68Z"/><path class="cls-2" d="M27.06,37a3.53,3.53,0,0,1-2.59-1,3.75,3.75,0,0,1-1-2.8V31.15a3.78,3.78,0,0,1,1-2.81,3.56,3.56,0,0,1,2.59-.95,3.24,3.24,0,0,1,2.47.9,3.44,3.44,0,0,1,.85,2.46v.07h-.85v-.09a2.81,2.81,0,0,0-.6-1.86,2.29,2.29,0,0,0-1.87-.72,2.59,2.59,0,0,0-2,.78,3.11,3.11,0,0,0-.71,2.19v2.14a3.11,3.11,0,0,0,.71,2.19,2.59,2.59,0,0,0,2,.78,2.29,2.29,0,0,0,1.87-.72,2.78,2.78,0,0,0,.6-1.85v-.2h.85v.17a3.42,3.42,0,0,1-.85,2.46A3.21,3.21,0,0,1,27.06,37Z"/><path class="cls-2" d="M34.55,37a3.39,3.39,0,0,1-1.71-.42,2.75,2.75,0,0,1-1.13-1.16,3.61,3.61,0,0,1-.41-1.74v-.15a3.61,3.61,0,0,1,.41-1.74,2.81,2.81,0,0,1,1.13-1.16,3.69,3.69,0,0,1,3.42,0,2.89,2.89,0,0,1,1.14,1.16,3.6,3.6,0,0,1,.4,1.74v.15a3.6,3.6,0,0,1-.4,1.74,2.83,2.83,0,0,1-1.14,1.16A3.39,3.39,0,0,1,34.55,37Zm0-.71a2.32,2.32,0,0,0,1.8-.72A2.72,2.72,0,0,0,37,33.66v-.11a2.74,2.74,0,0,0-.66-1.91,2.62,2.62,0,0,0-3.59,0,2.74,2.74,0,0,0-.66,1.91v.11a2.72,2.72,0,0,0,.66,1.91A2.33,2.33,0,0,0,34.55,36.29Z"/><path class="cls-2" d="M41.61,37a2.89,2.89,0,0,1-1.27-.29,2.34,2.34,0,0,1-.94-.88,2.86,2.86,0,0,1-.35-1.47V30.4h.8v3.85a1.92,1.92,0,0,0,.52,1.51,2,2,0,0,0,1.42.47,2.23,2.23,0,0,0,1.65-.65,2.66,2.66,0,0,0,.66-2V30.4h.79v6.41h-.77V35.63H44a2.38,2.38,0,0,1-.78.91A2.61,2.61,0,0,1,41.61,37Z"/><path class="cls-2" d="M46.55,36.81V30.4h.77v1.19h.16a2.41,2.41,0,0,1,.78-.92,2.58,2.58,0,0,1,1.57-.41,2.74,2.74,0,0,1,1.28.3,2.16,2.16,0,0,1,.93.87,2.92,2.92,0,0,1,.35,1.48v3.9H51.6V33a1.94,1.94,0,0,0-.53-1.52A2,2,0,0,0,49.66,31a2.27,2.27,0,0,0-1.65.65,2.69,2.69,0,0,0-.66,2v3.2Z"/><path class="cls-2" d="M56.11,36.81a.9.9,0,0,1-1-1v-4.7H53V30.4h2.07V28h.79V30.4h2.24v.71H55.88v4.6a.34.34,0,0,0,.39.39h1.51v.71Z"/><path class="cls-2" d="M59.23,36.81V30.4H60v.8h.16a1.21,1.21,0,0,1,.54-.63,2.15,2.15,0,0,1,1-.2h.76v.74h-.85a1.64,1.64,0,0,0-1.16.41A1.68,1.68,0,0,0,60,32.8v4Z"/><path class="cls-2" d="M64.25,39.46v-.72H68a.35.35,0,0,0,.4-.39V35.71h-.16a2.48,2.48,0,0,1-.45.6,2.08,2.08,0,0,1-.74.46,3.1,3.1,0,0,1-1.14.18,2.85,2.85,0,0,1-1.27-.29,2.27,2.27,0,0,1-.94-.88,2.79,2.79,0,0,1-.35-1.46V30.4h.79v3.87a1.91,1.91,0,0,0,.53,1.5,2,2,0,0,0,1.41.46,2.26,2.26,0,0,0,1.65-.64,2.61,2.61,0,0,0,.67-2V30.4h.79v8.05a.92.92,0,0,1-1,1Z"/><path class="cls-2" d="M214.48,40a7.08,7.08,0,0,1-3-.61,4.59,4.59,0,0,1-2-1.86,6.11,6.11,0,0,1-.74-3.14V23.49h1.48V34.38a4.18,4.18,0,0,0,1.14,3.22,5.4,5.4,0,0,0,6.4,0,4.19,4.19,0,0,0,1.15-3.22V23.49h1.48V34.38a6.21,6.21,0,0,1-.73,3.14,4.56,4.56,0,0,1-2.05,1.86A7.13,7.13,0,0,1,214.48,40Z"/><path class="cls-2" d="M223,39.67V28.44h1.34v2.08h.28A4.27,4.27,0,0,1,226,28.91a4.58,4.58,0,0,1,2.75-.7,5.09,5.09,0,0,1,2.25.5,3.93,3.93,0,0,1,1.62,1.54,5,5,0,0,1,.62,2.58v6.84h-1.39V32.92a3.4,3.4,0,0,0-.92-2.66,3.63,3.63,0,0,0-2.48-.81,3.94,3.94,0,0,0-2.89,1.15,4.65,4.65,0,0,0-1.15,3.45v5.62Z"/><path class="cls-2" d="M236.71,26.5a1.15,1.15,0,0,1-.85-.35,1.18,1.18,0,0,1-.35-.86,1.18,1.18,0,0,1,1.2-1.2,1.15,1.15,0,0,1,1.2,1.2,1.2,1.2,0,0,1-.33.86A1.17,1.17,0,0,1,236.71,26.5ZM236,39.67V28.44h1.39V39.67Z"/><path class="cls-2" d="M244.38,39.67a1.84,1.84,0,0,1-1.35-.46,1.79,1.79,0,0,1-.45-1.3V29.68H239V28.44h3.6V24.23H244v4.21h3.93v1.24H244v8a.61.61,0,0,0,.69.69h2.64v1.25Z"/><path class="cls-2" d="M254.6,40a6,6,0,0,1-3-.73,5.1,5.1,0,0,1-2-2,6.33,6.33,0,0,1-.71-3v-.28a6.35,6.35,0,0,1,.71-3,5.22,5.22,0,0,1,2-2,6.11,6.11,0,0,1,5.66-.07,4.72,4.72,0,0,1,1.91,1.9,5.92,5.92,0,0,1,.69,2.94v.74h-9.57a4.48,4.48,0,0,0,1.29,3.25,4.3,4.3,0,0,0,3.06,1.14A3.77,3.77,0,0,0,257,38a4.78,4.78,0,0,0,1.32-1.76l1.25.55a6.53,6.53,0,0,1-1,1.5,4.75,4.75,0,0,1-1.58,1.2A5.72,5.72,0,0,1,254.6,40Zm-4.32-6.84h8.13a3.85,3.85,0,0,0-1.18-2.81,4,4,0,0,0-2.79-1,4.09,4.09,0,0,0-2.8,1A4.42,4.42,0,0,0,250.28,33.15Z"/><path class="cls-2" d="M266.94,40a5.39,5.39,0,0,1-2.73-.7,5.1,5.1,0,0,1-1.95-2,6.19,6.19,0,0,1-.73-3.09v-.28a6.29,6.29,0,0,1,.72-3.08,5,5,0,0,1,1.95-2,5.43,5.43,0,0,1,2.74-.71,5.63,5.63,0,0,1,2.1.34,4.25,4.25,0,0,1,1.4.85,4.41,4.41,0,0,1,.84,1.1h.28V23.49H273V39.67H271.6V37.61h-.27a4.69,4.69,0,0,1-1.51,1.65A4.91,4.91,0,0,1,266.94,40Zm.32-1.25a4.12,4.12,0,0,0,3.11-1.22,4.66,4.66,0,0,0,1.19-3.38V34a4.63,4.63,0,0,0-1.19-3.37,4.52,4.52,0,0,0-6.2,0A4.56,4.56,0,0,0,263,34v.18a4.59,4.59,0,0,0,1.21,3.38A4.12,4.12,0,0,0,267.26,38.74Z"/><path class="cls-2" d="M280.62,39.67V23.49h1.48v7.3h.27l7.49-7.3h2.08l-8.36,8,8.64,8.18h-2.11l-7.74-7.44h-.27v7.44Z"/><path class="cls-2" d="M294.16,26.5a1.18,1.18,0,0,1-1.2-1.21,1.14,1.14,0,0,1,.34-.86,1.2,1.2,0,0,1,2.06.86,1.2,1.2,0,0,1-.33.86A1.18,1.18,0,0,1,294.16,26.5Zm-.69,13.17V28.44h1.38V39.67Z"/><path class="cls-2" d="M297.76,39.67V28.44h1.34v2.08h.28a4.21,4.21,0,0,1,1.37-1.61,4.54,4.54,0,0,1,2.75-.7,5.08,5.08,0,0,1,2.24.5,3.93,3.93,0,0,1,1.62,1.54,5,5,0,0,1,.62,2.58v6.84h-1.39V32.92a3.4,3.4,0,0,0-.92-2.66,3.63,3.63,0,0,0-2.48-.81,3.9,3.9,0,0,0-2.88,1.15,4.61,4.61,0,0,0-1.16,3.45v5.62Z"/><path class="cls-2" d="M310.19,34.1v-.28a6.09,6.09,0,0,1,.73-3.05,5.13,5.13,0,0,1,2-2,5.33,5.33,0,0,1,2.72-.7,5,5,0,0,1,2.88.73A4.76,4.76,0,0,1,320,30.49h.28v-2h1.3V42.53a1.58,1.58,0,0,1-1.78,1.76h-7.68V43h7.4c.48,0,.71-.23.71-.69V37.52H320a4.33,4.33,0,0,1-.85,1.08,4,4,0,0,1-1.39.87,5.86,5.86,0,0,1-2.11.34,5.56,5.56,0,0,1-2.74-.7,5.06,5.06,0,0,1-1.95-2A6.24,6.24,0,0,1,310.19,34.1Zm5.74,4.46a4.17,4.17,0,0,0,3.1-1.2,4.48,4.48,0,0,0,1.19-3.31v-.18A4.46,4.46,0,0,0,319,30.55a4.63,4.63,0,0,0-6.2,0,4.46,4.46,0,0,0-1.2,3.32v.18a4.48,4.48,0,0,0,1.2,3.31A4.19,4.19,0,0,0,315.93,38.56Z"/><path class="cls-2" d="M329.33,40a5.39,5.39,0,0,1-2.73-.7,5.24,5.24,0,0,1-2-2,6.3,6.3,0,0,1-.73-3.09v-.28a6.29,6.29,0,0,1,.72-3.08,5.1,5.1,0,0,1,1.95-2,5.46,5.46,0,0,1,2.74-.71,5.63,5.63,0,0,1,2.1.34,4.25,4.25,0,0,1,1.4.85,4.41,4.41,0,0,1,.84,1.1H334V23.49h1.39V39.67H334V37.61h-.28a4.69,4.69,0,0,1-1.51,1.65A4.91,4.91,0,0,1,329.33,40Zm.32-1.25a4.12,4.12,0,0,0,3.11-1.22A4.66,4.66,0,0,0,334,34.14V34a4.63,4.63,0,0,0-1.19-3.37,4.52,4.52,0,0,0-6.2,0A4.6,4.6,0,0,0,325.35,34v.18a4.63,4.63,0,0,0,1.21,3.38A4.12,4.12,0,0,0,329.65,38.74Z"/><path class="cls-2" d="M343.38,40a5.89,5.89,0,0,1-3-.73,5,5,0,0,1-2-2,6.29,6.29,0,0,1-.71-3v-.28a6.35,6.35,0,0,1,.71-3,5,5,0,0,1,2-2,6.49,6.49,0,0,1,6,0,5,5,0,0,1,2,2,6.34,6.34,0,0,1,.7,3v.28a6.29,6.29,0,0,1-.7,3,5,5,0,0,1-2,2A5.89,5.89,0,0,1,343.38,40Zm0-1.25a4.05,4.05,0,0,0,3.14-1.26,4.75,4.75,0,0,0,1.16-3.34V34a4.75,4.75,0,0,0-1.16-3.34,4.53,4.53,0,0,0-6.27,0A4.71,4.71,0,0,0,339.08,34v.18a4.71,4.71,0,0,0,1.17,3.34A4.06,4.06,0,0,0,343.38,38.74Z"/><path class="cls-2" d="M351.42,39.67V28.44h1.34v1.48H353a3.58,3.58,0,0,1,1.11-1.17,3.72,3.72,0,0,1,2.17-.54,3.62,3.62,0,0,1,2.21.62,3.68,3.68,0,0,1,1.21,1.5H360a3.88,3.88,0,0,1,1.22-1.5,3.81,3.81,0,0,1,2.34-.62,4,4,0,0,1,2,.47A3.47,3.47,0,0,1,366.93,30a3.91,3.91,0,0,1,.48,2v7.7H366V32.11a2.63,2.63,0,0,0-.72-1.93,2.8,2.8,0,0,0-2.05-.73,3.1,3.1,0,0,0-2.24.87,3.35,3.35,0,0,0-.9,2.53v6.82h-1.39V32.11a2.63,2.63,0,0,0-.72-1.93,2.8,2.8,0,0,0-2.05-.73,3.1,3.1,0,0,0-2.24.87,3.35,3.35,0,0,0-.9,2.53v6.82Z"/><path class="cls-2" d="M27,132.06a3.8,3.8,0,0,1-1.85-.43,2.94,2.94,0,0,1-1.22-1.27,4.3,4.3,0,0,1-.44-2.06v-2.09a3.78,3.78,0,0,1,1-2.81,3.56,3.56,0,0,1,2.59-1,3.17,3.17,0,0,1,2.44.89,3.41,3.41,0,0,1,.83,2.39v.07h-.85v-.09a3.09,3.09,0,0,0-.25-1.29,1.92,1.92,0,0,0-.79-.88,2.56,2.56,0,0,0-1.38-.33,2.59,2.59,0,0,0-2,.78,3.11,3.11,0,0,0-.71,2.19v2.14a3.09,3.09,0,0,0,.71,2.19,2.59,2.59,0,0,0,2,.78,2.25,2.25,0,0,0,1.85-.72,3,3,0,0,0,.6-2v-.26H26.46v-.74h3.87v4.27h-.77v-1H29.4a2.05,2.05,0,0,1-.45.6,2.08,2.08,0,0,1-.76.46A3.55,3.55,0,0,1,27,132.06Z"/><path class="cls-2" d="M31.33,131.88v-.77h1.32V123.4H31.33v-.77h3.51a4,4,0,0,1,2.82.92,3.65,3.65,0,0,1,1,2.86v1.7a3.61,3.61,0,0,1-1,2.85,4,4,0,0,1-2.82.92Zm2.17-.77h1.34a3.16,3.16,0,0,0,2.22-.7,2.94,2.94,0,0,0,.77-2.26v-1.78a3,3,0,0,0-.77-2.27,3.21,3.21,0,0,0-2.22-.69H33.5Z"/><path class="cls-2" d="M39.91,131.88v-9.25h3.42a3.53,3.53,0,0,1,1.48.31,2.55,2.55,0,0,1,1,.89,2.49,2.49,0,0,1,.38,1.42v.15a2.41,2.41,0,0,1-1.43,2.32,3.43,3.43,0,0,1-1.46.3H40.76v3.86Zm.85-4.63h2.48a2.34,2.34,0,0,0,1.57-.49,1.7,1.7,0,0,0,.57-1.37v-.13a1.73,1.73,0,0,0-.56-1.38,2.37,2.37,0,0,0-1.58-.48H40.76Z"/><path class="cls-2" d="M50,134.52v-9.06h.76v1.17h.16a2.84,2.84,0,0,1,.87-.94,2.78,2.78,0,0,1,1.64-.42,3.08,3.08,0,0,1,1.56.41,2.86,2.86,0,0,1,1.12,1.14,3.62,3.62,0,0,1,.41,1.77v.16a3.55,3.55,0,0,1-.41,1.76A2.86,2.86,0,0,1,55,131.66a3.06,3.06,0,0,1-1.57.4,3.27,3.27,0,0,1-1.19-.19,2.32,2.32,0,0,1-.81-.5,2.42,2.42,0,0,1-.48-.62h-.16v3.77Zm3.25-3.17a2.37,2.37,0,0,0,1.77-.7,2.63,2.63,0,0,0,.68-1.93v-.11a2.61,2.61,0,0,0-.68-1.92,2.59,2.59,0,0,0-3.54,0,2.61,2.61,0,0,0-.69,1.92v.11a2.64,2.64,0,0,0,.69,1.93A2.37,2.37,0,0,0,53.2,131.35Z"/><path class="cls-2" d="M60.78,132.06a3.44,3.44,0,0,1-1.73-.42,2.83,2.83,0,0,1-1.14-1.16,3.62,3.62,0,0,1-.41-1.73v-.16a3.61,3.61,0,0,1,.41-1.74A2.93,2.93,0,0,1,59,125.69a3.2,3.2,0,0,1,1.64-.42,3.28,3.28,0,0,1,1.59.38,2.64,2.64,0,0,1,1.09,1.08,3.33,3.33,0,0,1,.4,1.69v.42H58.29a2.52,2.52,0,0,0,.74,1.85,2.42,2.42,0,0,0,1.75.66,2.15,2.15,0,0,0,1.39-.41,2.73,2.73,0,0,0,.76-1l.71.32a3.33,3.33,0,0,1-.55.85,2.63,2.63,0,0,1-.9.69A3.22,3.22,0,0,1,60.78,132.06Zm-2.47-3.91H63a2.2,2.2,0,0,0-.67-1.6,2.25,2.25,0,0,0-1.6-.56,2.27,2.27,0,0,0-1.59.56A2.44,2.44,0,0,0,58.31,128.15Z"/><path class="cls-2" d="M65.05,131.88v-6.42h.77v.8H66a1.18,1.18,0,0,1,.55-.63,2.12,2.12,0,0,1,1-.2h.75v.74h-.85a1.64,1.64,0,0,0-1.16.41,1.68,1.68,0,0,0-.43,1.28v4Z"/><path class="cls-2" d="M74.94,132.06a3.41,3.41,0,0,1-1.67-.4,2.92,2.92,0,0,1-1.15-1.16,3.57,3.57,0,0,1-.43-1.77v-.13a3.58,3.58,0,0,1,.43-1.78,2.87,2.87,0,0,1,1.15-1.14,3.41,3.41,0,0,1,1.67-.41,3.28,3.28,0,0,1,1.57.35,2.76,2.76,0,0,1,1,.91,2.87,2.87,0,0,1,.46,1.19l-.78.15a2.57,2.57,0,0,0-.33-.94,2,2,0,0,0-.74-.69,2.48,2.48,0,0,0-1.18-.25,2.35,2.35,0,0,0-2.13,1.23,2.91,2.91,0,0,0-.32,1.39v.11a2.88,2.88,0,0,0,.32,1.39,2.34,2.34,0,0,0,.88.91,2.41,2.41,0,0,0,1.25.33,2.19,2.19,0,0,0,1.61-.55,2.35,2.35,0,0,0,.69-1.34l.78.16a3.05,3.05,0,0,1-.5,1.18,2.79,2.79,0,0,1-1,.91A3.28,3.28,0,0,1,74.94,132.06Z"/><path class="cls-2" d="M81.28,132.06a3.19,3.19,0,0,1-1.22-.23,1.94,1.94,0,0,1-.86-.68,1.84,1.84,0,0,1-.32-1.08A1.72,1.72,0,0,1,79.2,129a1.9,1.9,0,0,1,.85-.64,3.38,3.38,0,0,1,1.21-.21h2.35v-.51a1.62,1.62,0,0,0-.45-1.22,1.82,1.82,0,0,0-1.31-.43,2,2,0,0,0-1.34.41,2.09,2.09,0,0,0-.67,1.12l-.76-.23a2.86,2.86,0,0,1,.5-1,2.45,2.45,0,0,1,.91-.73,3.14,3.14,0,0,1,1.36-.27,2.58,2.58,0,0,1,1.88.64,2.3,2.3,0,0,1,.67,1.77v3.11c0,.27.12.4.37.4h.62v.69h-.85a.87.87,0,0,1-.64-.25.9.9,0,0,1-.24-.67v-.09h-.13a3.23,3.23,0,0,1-.44.57,2.27,2.27,0,0,1-.71.45A3.14,3.14,0,0,1,81.28,132.06Zm.06-.71a2.26,2.26,0,0,0,1.64-.62,2.3,2.3,0,0,0,.63-1.73v-.16H81.27a2.1,2.1,0,0,0-1.14.29,1,1,0,0,0-.46.92,1.11,1.11,0,0,0,.47,1A2,2,0,0,0,81.34,131.35Z"/><path class="cls-2" d="M86.23,134.52v-9.06H87v1.17h.16a2.71,2.71,0,0,1,.86-.94,2.82,2.82,0,0,1,1.65-.42,3.08,3.08,0,0,1,1.56.41,2.9,2.9,0,0,1,1.11,1.14,3.51,3.51,0,0,1,.42,1.77v.16a3.66,3.66,0,0,1-.41,1.76,2.93,2.93,0,0,1-1.11,1.15,3.08,3.08,0,0,1-1.57.4,3.28,3.28,0,0,1-1.2-.19,2.19,2.19,0,0,1-.8-.5,2.42,2.42,0,0,1-.48-.62H87v3.77Zm3.25-3.17a2.4,2.4,0,0,0,1.78-.7,2.67,2.67,0,0,0,.68-1.93v-.11a2.65,2.65,0,0,0-.68-1.92,2.6,2.6,0,0,0-3.55,0,2.65,2.65,0,0,0-.68,1.92v.11a2.67,2.67,0,0,0,.68,1.93A2.4,2.4,0,0,0,89.48,131.35Z"/><path class="cls-2" d="M94.5,124.35a.68.68,0,0,1-.49-.2.66.66,0,0,1-.2-.49.65.65,0,0,1,.2-.49.69.69,0,0,1,1.18.49.7.7,0,0,1-.19.49A.69.69,0,0,1,94.5,124.35Zm-.4,7.53v-6.42h.8v6.42Z"/><path class="cls-2" d="M98.88,131.88a.92.92,0,0,1-1-1v-4.7H95.79v-.71h2.06v-2.41h.8v2.41h2.24v.71H98.65v4.6a.34.34,0,0,0,.39.39h1.51v.72Z"/><path class="cls-2" d="M103.92,132.06a3.25,3.25,0,0,1-1.23-.23,1.94,1.94,0,0,1-.86-.68,1.84,1.84,0,0,1-.32-1.08,1.72,1.72,0,0,1,.32-1.07,1.93,1.93,0,0,1,.86-.64,3.29,3.29,0,0,1,1.2-.21h2.35v-.51a1.62,1.62,0,0,0-.45-1.22,1.8,1.8,0,0,0-1.31-.43,1.86,1.86,0,0,0-2,1.53l-.77-.23a3,3,0,0,1,.5-1,2.54,2.54,0,0,1,.91-.73,3.14,3.14,0,0,1,1.36-.27,2.58,2.58,0,0,1,1.88.64,2.3,2.3,0,0,1,.67,1.77v3.11c0,.27.13.4.37.4H108v.69h-.84a.87.87,0,0,1-.65-.25.9.9,0,0,1-.24-.67v-.09h-.13a2.82,2.82,0,0,1-.44.57,2.16,2.16,0,0,1-.71.45A3.12,3.12,0,0,1,103.92,132.06Zm0-.71a2.24,2.24,0,0,0,1.64-.62,2.3,2.3,0,0,0,.63-1.73v-.16H103.9a2.1,2.1,0,0,0-1.14.29,1,1,0,0,0-.46.92,1.11,1.11,0,0,0,.47,1A2.05,2.05,0,0,0,104,131.35Z"/><path class="cls-2" d="M112,124.35a.68.68,0,0,1-.49-.2.66.66,0,0,1-.2-.49.65.65,0,0,1,.2-.49.69.69,0,0,1,1.18.49.7.7,0,0,1-.19.49A.69.69,0,0,1,112,124.35Zm-.4,7.53v-6.42h.8v6.42Z"/><path class="cls-2" d="M114.07,131.88v-6.42h.77v1.19H115a2.41,2.41,0,0,1,.78-.92,2.6,2.6,0,0,1,1.57-.4,2.71,2.71,0,0,1,1.28.29,2.25,2.25,0,0,1,.94.87,2.92,2.92,0,0,1,.35,1.48v3.91h-.8V128a1.94,1.94,0,0,0-.52-1.52,2.09,2.09,0,0,0-1.42-.46,2.27,2.27,0,0,0-1.65.65,2.69,2.69,0,0,0-.66,2v3.21Z"/><path class="cls-2" d="M123.84,131.88V131a2.91,2.91,0,0,1,.36-1.56,2.66,2.66,0,0,1,1-.92,8.74,8.74,0,0,1,1.52-.61l.66-.21a5.43,5.43,0,0,0,1.14-.48,2,2,0,0,0,1.05-1.87v0a1.86,1.86,0,0,0-.67-1.52,2.55,2.55,0,0,0-1.7-.55,2.69,2.69,0,0,0-1.79.58,2.21,2.21,0,0,0-.7,1.79v.17h-.79v-.17a3.19,3.19,0,0,1,.42-1.69,2.67,2.67,0,0,1,1.17-1.06,3.85,3.85,0,0,1,1.69-.36,3.64,3.64,0,0,1,1.67.35,2.6,2.6,0,0,1,1.12,1,2.65,2.65,0,0,1,.4,1.46v.12a2.81,2.81,0,0,1-.35,1.47,2.64,2.64,0,0,1-1,.94,7.67,7.67,0,0,1-1.49.64l-.66.2a9.32,9.32,0,0,0-1.21.47,1.87,1.87,0,0,0-.76.65,2,2,0,0,0-.26,1.11v.31h5.64v.74Z"/><path class="cls-2" d="M134.63,132.06a3.23,3.23,0,0,1-2.46-.94,3.89,3.89,0,0,1-.91-2.81V126.2a3.89,3.89,0,0,1,.91-2.81,3.69,3.69,0,0,1,4.92,0,3.94,3.94,0,0,1,.91,2.81v2.11a3.94,3.94,0,0,1-.91,2.81A3.23,3.23,0,0,1,134.63,132.06Zm0-.74a2.34,2.34,0,0,0,1.91-.78,3.41,3.41,0,0,0,.64-2.18v-2.22a3.4,3.4,0,0,0-.64-2.17,2.73,2.73,0,0,0-3.82,0,3.34,3.34,0,0,0-.64,2.17v2.22a3.35,3.35,0,0,0,.64,2.18A2.33,2.33,0,0,0,134.63,131.32Z"/><path class="cls-2" d="M139,131.88V131a3,3,0,0,1,.35-1.56,2.62,2.62,0,0,1,1-.92,8.61,8.61,0,0,1,1.51-.61l.66-.21a5.43,5.43,0,0,0,1.14-.48,1.94,1.94,0,0,0,1-1.87v0a1.88,1.88,0,0,0-.66-1.52,2.57,2.57,0,0,0-1.7-.55,2.68,2.68,0,0,0-1.79.58,2.21,2.21,0,0,0-.71,1.79v.17H139v-.17a3.1,3.1,0,0,1,.43-1.69,2.7,2.7,0,0,1,1.16-1.06,3.89,3.89,0,0,1,1.7-.36,3.67,3.67,0,0,1,1.67.35,2.55,2.55,0,0,1,1.51,2.43v.12a2.71,2.71,0,0,1-.35,1.47,2.61,2.61,0,0,1-1,.94,7.67,7.67,0,0,1-1.49.64l-.66.2a8.78,8.78,0,0,0-1.21.47,1.81,1.81,0,0,0-.76.65,2,2,0,0,0-.26,1.11v.31h5.63v.74Z"/><path class="cls-2" d="M148.9,131.88v-8.75h-.17l-2,3.44h-.92l2.33-3.94h1.6v9.25Z"/><path class="cls-2" d="M214.09,135.05a7.49,7.49,0,0,1-3.1-.61,4.82,4.82,0,0,1-2.15-1.87,6,6,0,0,1-.78-3.2v-.44h1.48v.44a4.05,4.05,0,0,0,1.28,3.31,4.92,4.92,0,0,0,3.27,1.08,4.6,4.6,0,0,0,3.1-.94,3,3,0,0,0,1.08-2.39,2.44,2.44,0,0,0-.47-1.56,3.41,3.41,0,0,0-1.32-1,12.43,12.43,0,0,0-1.95-.63l-1.48-.37a12.08,12.08,0,0,1-2.36-.87,4.33,4.33,0,0,1-1.64-1.36,3.63,3.63,0,0,1-.6-2.16,3.92,3.92,0,0,1,.68-2.29,4.35,4.35,0,0,1,1.89-1.49,6.91,6.91,0,0,1,2.79-.52,7.21,7.21,0,0,1,2.88.55,4.75,4.75,0,0,1,2,1.63,4.62,4.62,0,0,1,.75,2.7v1.08H218v-1.08a3.49,3.49,0,0,0-.56-2.06,3.22,3.22,0,0,0-1.5-1.16,5.94,5.94,0,0,0-2.13-.37,4.68,4.68,0,0,0-2.78.78,2.56,2.56,0,0,0-1.1,2.23,2.46,2.46,0,0,0,.45,1.55,3.1,3.1,0,0,0,1.27.92,12.93,12.93,0,0,0,1.93.62l1.48.37a11.81,11.81,0,0,1,2.33.8,4.46,4.46,0,0,1,1.71,1.36,3.74,3.74,0,0,1,.65,2.28,4.25,4.25,0,0,1-.7,2.45,4.61,4.61,0,0,1-2,1.61A7.4,7.4,0,0,1,214.09,135.05Zm-.67,2.36V115.87h1.39v21.54Z"/><path class="cls-2" d="M229.32,134.73V131.4h-8.64v-1.71l7.3-11.14h2.77v11.56h2.82v1.29h-2.82v3.33Zm-7.14-4.62h7.14V119.38H229l-6.86,10.5Z"/><path class="cls-2" d="M240.2,135.05a6.28,6.28,0,0,1-2.87-.64,5,5,0,0,1-2-1.88,5.48,5.48,0,0,1-.75-2.93v-5.71a6.28,6.28,0,0,1,.68-3,4.81,4.81,0,0,1,2-2,7.21,7.21,0,0,1,6.07,0,4.44,4.44,0,0,1,1.85,1.73,4.77,4.77,0,0,1,.62,2.45h-1.43a3.37,3.37,0,0,0-1-2.57,4.25,4.25,0,0,0-3-1,4.31,4.31,0,0,0-3.16,1.12,4.21,4.21,0,0,0-1.12,3.09v2.47h.28a4.22,4.22,0,0,1,1.47-1.44,5.2,5.2,0,0,1,2.83-.66,5.51,5.51,0,0,1,2.7.66,4.92,4.92,0,0,1,1.91,1.85,5.43,5.43,0,0,1,.7,2.83v.27a5.27,5.27,0,0,1-.75,2.85,5.1,5.1,0,0,1-2,1.85A6.32,6.32,0,0,1,240.2,135.05Zm0-1.29a4.29,4.29,0,0,0,3.05-1.09,3.84,3.84,0,0,0,1.18-3v-.18a4.3,4.3,0,0,0-.54-2.2,3.82,3.82,0,0,0-1.49-1.44,4.89,4.89,0,0,0-4.39,0,3.69,3.69,0,0,0-1.49,1.44,4.2,4.2,0,0,0-.55,2.2v.18a3.87,3.87,0,0,0,1.18,3A4.3,4.3,0,0,0,240.2,133.76Z"/><path class="cls-2" d="M247.71,137.41v-1h.56a.66.66,0,0,0,.74-.74V135h-.3a1.31,1.31,0,0,1-.94-.36,1.21,1.21,0,0,1-.38-.91,1.19,1.19,0,0,1,.38-.91,1.31,1.31,0,0,1,.94-.36,1.27,1.27,0,0,1,.93.38,1.24,1.24,0,0,1,.38.93v1.92a1.55,1.55,0,0,1-1.73,1.76Z"/><path class="cls-2" d="M251.59,134.73v-1.6a5.11,5.11,0,0,1,.63-2.73,4.51,4.51,0,0,1,1.74-1.61,14.76,14.76,0,0,1,2.65-1.06l1.15-.37a9.47,9.47,0,0,0,2-.85,3.47,3.47,0,0,0,1.84-3.27v-.09a3.28,3.28,0,0,0-1.17-2.66,4.5,4.5,0,0,0-3-1,4.77,4.77,0,0,0-3.14,1,3.85,3.85,0,0,0-1.22,3.13v.3h-1.39v-.3a5.64,5.64,0,0,1,.74-3,4.81,4.81,0,0,1,2-1.85,6.75,6.75,0,0,1,3-.63,6.61,6.61,0,0,1,2.93.61,4.53,4.53,0,0,1,2.64,4.27v.2a4.88,4.88,0,0,1-.61,2.58,4.68,4.68,0,0,1-1.72,1.64,13.83,13.83,0,0,1-2.61,1.12l-1.16.35a14.36,14.36,0,0,0-2.11.82,3.23,3.23,0,0,0-1.33,1.13,3.52,3.52,0,0,0-.46,2v.53h9.86v1.3Z"/><path class="cls-2" d="M270.47,135.05a5.71,5.71,0,0,1-4.31-1.65,6.87,6.87,0,0,1-1.58-4.91v-3.7a6.87,6.87,0,0,1,1.58-4.91,6.45,6.45,0,0,1,8.62,0,6.82,6.82,0,0,1,1.59,4.91v3.7a6.82,6.82,0,0,1-1.59,4.91A5.68,5.68,0,0,1,270.47,135.05Zm0-1.29a4.05,4.05,0,0,0,3.34-1.38,5.82,5.82,0,0,0,1.12-3.8V124.7a5.82,5.82,0,0,0-1.12-3.8,4.73,4.73,0,0,0-6.68,0,5.87,5.87,0,0,0-1.12,3.8v3.88a5.87,5.87,0,0,0,1.12,3.8A4.05,4.05,0,0,0,270.47,133.76Z"/><path class="cls-2" d="M284.06,135.05a5.7,5.7,0,0,1-4.31-1.65,6.82,6.82,0,0,1-1.58-4.91v-3.7a6.82,6.82,0,0,1,1.58-4.91,6.45,6.45,0,0,1,8.62,0,6.82,6.82,0,0,1,1.58,4.91v3.7a6.82,6.82,0,0,1-1.58,4.91A5.7,5.7,0,0,1,284.06,135.05Zm0-1.29a4.05,4.05,0,0,0,3.34-1.38,5.82,5.82,0,0,0,1.12-3.8V124.7a5.82,5.82,0,0,0-1.12-3.8,4.73,4.73,0,0,0-6.68,0,5.82,5.82,0,0,0-1.12,3.8v3.88a5.82,5.82,0,0,0,1.12,3.8A4.05,4.05,0,0,0,284.06,133.76Z"/><path class="cls-2" d="M27,179.59a3.8,3.8,0,0,1-1.85-.43,2.86,2.86,0,0,1-1.22-1.26,4.34,4.34,0,0,1-.44-2.07v-2.09a3.75,3.75,0,0,1,1-2.8,3.53,3.53,0,0,1,2.59-1,3.14,3.14,0,0,1,2.44.9,3.39,3.39,0,0,1,.83,2.39v.06h-.85v-.09a3.13,3.13,0,0,0-.25-1.29,2,2,0,0,0-.79-.88,2.56,2.56,0,0,0-1.38-.32,2.59,2.59,0,0,0-2,.78,3.11,3.11,0,0,0-.71,2.19v2.14a3.11,3.11,0,0,0,.71,2.19,2.59,2.59,0,0,0,2,.78,2.22,2.22,0,0,0,1.85-.73,3,3,0,0,0,.6-1.95v-.27H26.46v-.74h3.87v4.27h-.77v-1H29.4a2.05,2.05,0,0,1-.45.6,1.94,1.94,0,0,1-.76.45A3.31,3.31,0,0,1,27,179.59Z"/><path class="cls-2" d="M31.83,179.41v-9.24h1.68l3.77,8.74h.16v-8.74h.85v9.24H36.61l-3.77-8.76h-.16v8.76Z"/><path class="cls-2" d="M39.9,179.41v-9.24h.84v9.24Z"/><path class="cls-2" d="M45.13,182.05V173h.76v1.18h.16a2.59,2.59,0,0,1,2.51-1.36,3.07,3.07,0,0,1,1.56.4,3,3,0,0,1,1.12,1.14,3.62,3.62,0,0,1,.41,1.77v.16a3.52,3.52,0,0,1-.41,1.76,2.86,2.86,0,0,1-1.11,1.15,3.06,3.06,0,0,1-1.57.4,3.27,3.27,0,0,1-1.19-.19,2.46,2.46,0,0,1-.81-.49,2.6,2.6,0,0,1-.48-.62h-.16v3.76Zm3.25-3.17a2.34,2.34,0,0,0,1.77-.7,2.63,2.63,0,0,0,.68-1.93v-.1a2.63,2.63,0,0,0-.68-1.93,2.34,2.34,0,0,0-1.77-.7,2.37,2.37,0,0,0-1.77.7,2.64,2.64,0,0,0-.69,1.93v.1a2.64,2.64,0,0,0,.69,1.93A2.37,2.37,0,0,0,48.38,178.88Z"/><path class="cls-2" d="M56,179.59a3.54,3.54,0,0,1-1.73-.41A3,3,0,0,1,53.09,178a3.6,3.6,0,0,1-.41-1.73v-.16a3.61,3.61,0,0,1,.41-1.74,3,3,0,0,1,1.13-1.16,3.2,3.2,0,0,1,1.64-.41,3.28,3.28,0,0,1,1.59.37,2.64,2.64,0,0,1,1.09,1.08,3.38,3.38,0,0,1,.4,1.69v.42H53.47a2.6,2.6,0,0,0,.74,1.86,2.46,2.46,0,0,0,1.75.65,2.13,2.13,0,0,0,1.39-.41,2.77,2.77,0,0,0,.76-1l.71.31a3.56,3.56,0,0,1-.55.86,2.74,2.74,0,0,1-.9.68A3.22,3.22,0,0,1,56,179.59Zm-2.47-3.91h4.65a2.2,2.2,0,0,0-.68-1.6,2.29,2.29,0,0,0-1.6-.56,2.32,2.32,0,0,0-1.59.56A2.44,2.44,0,0,0,53.49,175.68Z"/><path class="cls-2" d="M60.23,179.41V173H61v.81h.16a1.21,1.21,0,0,1,.55-.64,2.12,2.12,0,0,1,1-.2h.75v.74h-.85a1.64,1.64,0,0,0-1.16.41,1.69,1.69,0,0,0-.43,1.28v4Z"/><path class="cls-2" d="M70.12,179.59a3.41,3.41,0,0,1-1.67-.4A3,3,0,0,1,67.3,178a3.62,3.62,0,0,1-.42-1.77v-.14a3.54,3.54,0,0,1,.42-1.77,3,3,0,0,1,1.15-1.15,3.41,3.41,0,0,1,1.67-.4,3.17,3.17,0,0,1,1.57.35,2.6,2.6,0,0,1,1,.91,2.83,2.83,0,0,1,.46,1.18l-.78.16a2.25,2.25,0,0,0-.33-.95,2,2,0,0,0-.74-.68,2.37,2.37,0,0,0-1.18-.26,2.5,2.5,0,0,0-1.25.32,2.41,2.41,0,0,0-.88.91,3,3,0,0,0-.32,1.4v.1a3,3,0,0,0,.32,1.4,2.41,2.41,0,0,0,.88.91,2.5,2.5,0,0,0,1.25.32,2.19,2.19,0,0,0,1.62-.55,2.43,2.43,0,0,0,.68-1.34l.78.16a3.19,3.19,0,0,1-.49,1.18,2.81,2.81,0,0,1-1,.91A3.17,3.17,0,0,1,70.12,179.59Z"/><path class="cls-2" d="M76.46,179.59a3,3,0,0,1-1.22-.23,1.94,1.94,0,0,1-.86-.68,1.84,1.84,0,0,1-.32-1.08,1.74,1.74,0,0,1,.32-1.07,1.89,1.89,0,0,1,.85-.63,3.38,3.38,0,0,1,1.21-.22h2.35v-.51a1.6,1.6,0,0,0-.45-1.21,1.78,1.78,0,0,0-1.31-.44,2.06,2.06,0,0,0-1.34.41,2.09,2.09,0,0,0-.67,1.12l-.76-.22a3,3,0,0,1,.5-1,2.43,2.43,0,0,1,.91-.72,3.14,3.14,0,0,1,1.36-.27,2.62,2.62,0,0,1,1.88.63,2.3,2.3,0,0,1,.67,1.77v3.12c0,.26.12.39.37.39h.62v.69h-.85a.83.83,0,0,1-.64-.25.89.89,0,0,1-.24-.66v-.1h-.13a3.35,3.35,0,0,1-.44.57,2,2,0,0,1-.71.45A2.92,2.92,0,0,1,76.46,179.59Zm.06-.71a2.25,2.25,0,0,0,1.64-.61,2.32,2.32,0,0,0,.63-1.74v-.16H76.45a2,2,0,0,0-1.14.3,1,1,0,0,0-.46.92,1.1,1.1,0,0,0,.47.95A2,2,0,0,0,76.52,178.88Z"/><path class="cls-2" d="M81.42,182.05V173h.76v1.18h.16a2.65,2.65,0,0,1,.86-.95,2.82,2.82,0,0,1,1.65-.41,3.07,3.07,0,0,1,1.56.4,3,3,0,0,1,1.11,1.14,3.51,3.51,0,0,1,.42,1.77v.16a3.63,3.63,0,0,1-.41,1.76,2.86,2.86,0,0,1-1.11,1.15,3.08,3.08,0,0,1-1.57.4,3.28,3.28,0,0,1-1.2-.19,2.32,2.32,0,0,1-.8-.49,3,3,0,0,1-.49-.62h-.15v3.76Zm3.24-3.17a2.36,2.36,0,0,0,1.78-.7,2.67,2.67,0,0,0,.68-1.93v-.1a2.67,2.67,0,0,0-.68-1.93,2.6,2.6,0,0,0-3.55,0,2.67,2.67,0,0,0-.68,1.93v.1a2.67,2.67,0,0,0,.68,1.93A2.37,2.37,0,0,0,84.66,178.88Z"/><path class="cls-2" d="M89.68,171.88a.64.64,0,0,1-.49-.2.66.66,0,0,1-.2-.48.67.67,0,0,1,.69-.69.68.68,0,0,1,.5.19.7.7,0,0,1,.19.5.69.69,0,0,1-.19.48A.65.65,0,0,1,89.68,171.88Zm-.4,7.53V173h.8v6.42Z"/><path class="cls-2" d="M94.07,179.41a1,1,0,0,1-.78-.27,1,1,0,0,1-.26-.74v-4.7H91V173h2v-2.4h.8V173h2.24v.71H93.83v4.6a.35.35,0,0,0,.39.4h1.51v.71Z"/><path class="cls-2" d="M99.1,179.59a3.06,3.06,0,0,1-1.23-.23,1.94,1.94,0,0,1-.86-.68,1.84,1.84,0,0,1-.32-1.08,1.74,1.74,0,0,1,.32-1.07,1.92,1.92,0,0,1,.86-.63,3.29,3.29,0,0,1,1.2-.22h2.35v-.51A1.6,1.6,0,0,0,101,174a1.76,1.76,0,0,0-1.31-.44,2.06,2.06,0,0,0-1.34.41,2,2,0,0,0-.66,1.12l-.77-.22a3.18,3.18,0,0,1,.5-1,2.51,2.51,0,0,1,.91-.72,3.14,3.14,0,0,1,1.36-.27,2.62,2.62,0,0,1,1.88.63,2.3,2.3,0,0,1,.67,1.77v3.12c0,.26.13.39.37.39h.62v.69h-.84a.84.84,0,0,1-.65-.25.89.89,0,0,1-.24-.66v-.1h-.13a2.57,2.57,0,0,1-.44.57,1.88,1.88,0,0,1-.71.45A2.9,2.9,0,0,1,99.1,179.59Zm.05-.71a2.23,2.23,0,0,0,1.64-.61,2.32,2.32,0,0,0,.63-1.74v-.16H99.08a2,2,0,0,0-1.14.3,1,1,0,0,0-.46.92,1.1,1.1,0,0,0,.47.95A2,2,0,0,0,99.15,178.88Z"/><path class="cls-2" d="M107.19,171.88a.64.64,0,0,1-.49-.2.66.66,0,0,1-.2-.48.67.67,0,0,1,.69-.69.68.68,0,0,1,.5.19.7.7,0,0,1,.19.5.69.69,0,0,1-.19.48A.65.65,0,0,1,107.19,171.88Zm-.4,7.53V173h.8v6.42Z"/><path class="cls-2" d="M109.25,179.41V173H110v1.19h.15a2.48,2.48,0,0,1,.78-.92,2.6,2.6,0,0,1,1.57-.4,2.91,2.91,0,0,1,1.29.29,2.31,2.31,0,0,1,.93.88,2.86,2.86,0,0,1,.35,1.47v3.91h-.8v-3.86a1.94,1.94,0,0,0-.52-1.52,2.14,2.14,0,0,0-1.42-.46,2.24,2.24,0,0,0-1.65.66,2.65,2.65,0,0,0-.66,2v3.21Z"/><path class="cls-2" d="M119,179.41v-.91a3,3,0,0,1,.36-1.57,2.59,2.59,0,0,1,1-.92,8.75,8.75,0,0,1,1.52-.6l.66-.21a6,6,0,0,0,1.14-.49,2,2,0,0,0,1-1.86v-.06a1.86,1.86,0,0,0-.67-1.52,2.55,2.55,0,0,0-1.7-.55,2.7,2.7,0,0,0-1.79.59,2.19,2.19,0,0,0-.7,1.79v.17h-.79v-.17a3.22,3.22,0,0,1,.42-1.7,2.8,2.8,0,0,1,1.17-1.06,3.85,3.85,0,0,1,1.69-.36,3.77,3.77,0,0,1,1.67.35,2.6,2.6,0,0,1,1.52,2.44v.11a2.87,2.87,0,0,1-.35,1.48,2.8,2.8,0,0,1-1,.94,8.33,8.33,0,0,1-1.49.64l-.66.19a9.32,9.32,0,0,0-1.21.47,2,2,0,0,0-.76.65,2.08,2.08,0,0,0-.26,1.12v.3h5.64v.74Z"/><path class="cls-2" d="M129.81,179.59a3.23,3.23,0,0,1-2.46-.94,3.89,3.89,0,0,1-.91-2.81v-2.11a3.89,3.89,0,0,1,.91-2.81,3.69,3.69,0,0,1,4.92,0,3.94,3.94,0,0,1,.91,2.81v2.11a3.94,3.94,0,0,1-.91,2.81A3.23,3.23,0,0,1,129.81,179.59Zm0-.74a2.34,2.34,0,0,0,1.91-.78,3.4,3.4,0,0,0,.64-2.17v-2.22a3.36,3.36,0,0,0-.64-2.17,2.7,2.7,0,0,0-3.82,0,3.3,3.3,0,0,0-.64,2.17v2.22a3.34,3.34,0,0,0,.64,2.17A2.33,2.33,0,0,0,129.81,178.85Z"/><path class="cls-2" d="M134.13,179.41v-.91a3.07,3.07,0,0,1,.35-1.57,2.62,2.62,0,0,1,1-.92,8.63,8.63,0,0,1,1.51-.6l.66-.21a6,6,0,0,0,1.14-.49,2,2,0,0,0,1.06-1.86v-.06a1.89,1.89,0,0,0-.67-1.52,2.57,2.57,0,0,0-1.7-.55,2.68,2.68,0,0,0-1.79.59,2.19,2.19,0,0,0-.7,1.79v.17h-.8v-.17a3.13,3.13,0,0,1,.43-1.7,2.83,2.83,0,0,1,1.16-1.06,3.89,3.89,0,0,1,1.7-.36,3.83,3.83,0,0,1,1.67.35,2.58,2.58,0,0,1,1.51,2.44v.11a2.54,2.54,0,0,1-1.33,2.42,8.33,8.33,0,0,1-1.49.64l-.66.19a8.78,8.78,0,0,0-1.21.47,2,2,0,0,0-.76.65,2,2,0,0,0-.26,1.12v.3h5.63v.74Z"/><path class="cls-2" d="M144.92,179.59a3.27,3.27,0,0,1-2.47-.94,3.94,3.94,0,0,1-.9-2.81v-2.11a3.94,3.94,0,0,1,.9-2.81,3.7,3.7,0,0,1,4.93,0,3.94,3.94,0,0,1,.9,2.81v2.11a3.94,3.94,0,0,1-.9,2.81A3.26,3.26,0,0,1,144.92,179.59Zm0-.74a2.31,2.31,0,0,0,1.9-.78,3.34,3.34,0,0,0,.64-2.17v-2.22a3.3,3.3,0,0,0-.64-2.17,2.69,2.69,0,0,0-3.81,0,3.3,3.3,0,0,0-.64,2.17v2.22a3.34,3.34,0,0,0,.64,2.17A2.33,2.33,0,0,0,144.92,178.85Z"/><path class="cls-2" d="M214.09,182.58A7.49,7.49,0,0,1,211,182a4.82,4.82,0,0,1-2.15-1.87,6,6,0,0,1-.78-3.2v-.44h1.48v.44a4.05,4.05,0,0,0,1.28,3.31,4.92,4.92,0,0,0,3.27,1.08,4.6,4.6,0,0,0,3.1-.94,3,3,0,0,0,1.08-2.39,2.44,2.44,0,0,0-.47-1.56,3.41,3.41,0,0,0-1.32-1,13.58,13.58,0,0,0-1.95-.63l-1.48-.37a12.08,12.08,0,0,1-2.36-.87,4.33,4.33,0,0,1-1.64-1.36,3.63,3.63,0,0,1-.6-2.16,3.92,3.92,0,0,1,.68-2.29,4.35,4.35,0,0,1,1.89-1.49,6.91,6.91,0,0,1,2.79-.52,7.21,7.21,0,0,1,2.88.55,4.75,4.75,0,0,1,2,1.63,4.62,4.62,0,0,1,.75,2.7v1.08H218v-1.08a3.49,3.49,0,0,0-.56-2.06,3.22,3.22,0,0,0-1.5-1.16,5.94,5.94,0,0,0-2.13-.37,4.68,4.68,0,0,0-2.78.78,2.56,2.56,0,0,0-1.1,2.23,2.46,2.46,0,0,0,.45,1.55,3.1,3.1,0,0,0,1.27.92,12.93,12.93,0,0,0,1.93.62l1.48.37a11.81,11.81,0,0,1,2.33.8,4.46,4.46,0,0,1,1.71,1.36,3.74,3.74,0,0,1,.65,2.28,4.25,4.25,0,0,1-.7,2.45,4.61,4.61,0,0,1-2,1.61A7.4,7.4,0,0,1,214.09,182.58Zm-.67,2.36V163.4h1.39v21.54Z"/><path class="cls-2" d="M226.89,182.58a6.79,6.79,0,0,1-3-.64,4.88,4.88,0,0,1-2.08-1.89,5.56,5.56,0,0,1-.76-3v-.44h1.44v.46a4,4,0,0,0,1.22,3.09,4.53,4.53,0,0,0,3.19,1.12,4.33,4.33,0,0,0,3.1-1.06,3.57,3.57,0,0,0,1.11-2.68v-.14a3.09,3.09,0,0,0-.57-1.94,3.35,3.35,0,0,0-1.52-1.1,6,6,0,0,0-2.12-.36h-2.38v-1.94l6.56-4.46v-.23h-9.65v-1.3h11.09v2.08l-6.5,4.42v.23h1.27a6.51,6.51,0,0,1,2.68.52,4.1,4.1,0,0,1,2.57,4v.23a4.88,4.88,0,0,1-.69,2.62,4.73,4.73,0,0,1-2,1.75A6.78,6.78,0,0,1,226.89,182.58Z"/><path class="cls-2" d="M240,182.58a8.59,8.59,0,0,1-3.25-.56,4.72,4.72,0,0,1-2.08-1.6,4,4,0,0,1-.72-2.39v-.23a3.65,3.65,0,0,1,.54-2.06,3.71,3.71,0,0,1,1.33-1.23,4.19,4.19,0,0,1,1.45-.52v-.28a5.16,5.16,0,0,1-1.37-.59A3.5,3.5,0,0,1,234.7,172a3.24,3.24,0,0,1-.46-1.79v-.23a3.46,3.46,0,0,1,.75-2.26,4.69,4.69,0,0,1,2-1.42,8.14,8.14,0,0,1,2.93-.5,8.24,8.24,0,0,1,2.94.5,4.72,4.72,0,0,1,2,1.42,3.46,3.46,0,0,1,.75,2.26v.23a3.24,3.24,0,0,1-.46,1.79,3.48,3.48,0,0,1-1.16,1.16,4.83,4.83,0,0,1-1.38.59V174a4.14,4.14,0,0,1,1.47.52,3.74,3.74,0,0,1,1.31,1.23,3.57,3.57,0,0,1,.54,2.06V178a4,4,0,0,1-.72,2.39,4.72,4.72,0,0,1-2.08,1.6A8.56,8.56,0,0,1,240,182.58Zm0-1.29a6.05,6.05,0,0,0,3.36-.83,2.75,2.75,0,0,0,1.26-2.45v-.19a2.75,2.75,0,0,0-1.26-2.46,7.29,7.29,0,0,0-6.72,0,2.75,2.75,0,0,0-1.26,2.46V178a2.75,2.75,0,0,0,1.26,2.45A6.05,6.05,0,0,0,240,181.29Zm0-8a5.52,5.52,0,0,0,3.14-.79,2.53,2.53,0,0,0,1.16-2.22v-.18a2.53,2.53,0,0,0-1.16-2.22,6.64,6.64,0,0,0-6.28,0,2.53,2.53,0,0,0-1.16,2.22v.18a2.53,2.53,0,0,0,1.16,2.22A5.55,5.55,0,0,0,240,173.25Z"/><path class="cls-2" d="M247.83,184.94v-1h.55a.66.66,0,0,0,.74-.74v-.74h-.3a1.33,1.33,0,0,1-.94-.36,1.28,1.28,0,0,1,0-1.82,1.33,1.33,0,0,1,.94-.36,1.31,1.31,0,0,1,.94.38,1.28,1.28,0,0,1,.38.93v1.92a1.55,1.55,0,0,1-1.73,1.76Z"/><path class="cls-2" d="M257.28,182.58a6.41,6.41,0,0,1-3-.64,4.51,4.51,0,0,1-1.84-1.75,4.8,4.8,0,0,1-.63-2.44h1.43a3.36,3.36,0,0,0,1,2.57,5.08,5.08,0,0,0,6.17-.15,4.21,4.21,0,0,0,1.11-3.09v-2.47h-.27a4.31,4.31,0,0,1-1.47,1.44,5.22,5.22,0,0,1-2.83.66,5.52,5.52,0,0,1-2.69-.66,4.77,4.77,0,0,1-1.92-1.86,5.46,5.46,0,0,1-.71-2.81v-.28a5.28,5.28,0,0,1,.75-2.86,5.08,5.08,0,0,1,2-1.83,6.71,6.71,0,0,1,5.76,0,5.05,5.05,0,0,1,2,1.86,5.49,5.49,0,0,1,.75,2.94v5.71a6.46,6.46,0,0,1-.67,3,4.69,4.69,0,0,1-2,2A6.4,6.4,0,0,1,257.28,182.58Zm.05-7.11a4.54,4.54,0,0,0,2.19-.52,3.87,3.87,0,0,0,1.49-1.46,4.27,4.27,0,0,0,.54-2.18v-.19a3.84,3.84,0,0,0-1.18-3,4.32,4.32,0,0,0-3-1.09,4.37,4.37,0,0,0-3.06,1.09,3.86,3.86,0,0,0-1.17,3v.19a4.27,4.27,0,0,0,.54,2.18,3.87,3.87,0,0,0,1.49,1.46A4.56,4.56,0,0,0,257.33,175.47Z"/><path class="cls-2" d="M270.27,182.58a6.28,6.28,0,0,1-3-.68,5,5,0,0,1-2-1.89,5.51,5.51,0,0,1-.71-2.81v-.3H266v.23a4,4,0,0,0,1.17,3.12,4.44,4.44,0,0,0,3,1,4.2,4.2,0,0,0,3.11-1.13,4.29,4.29,0,0,0,1.12-3.15v-.18a4.26,4.26,0,0,0-1.07-3.05,3.71,3.71,0,0,0-2.83-1.13,3.83,3.83,0,0,0-1.69.33,2.94,2.94,0,0,0-1.05.81,6.14,6.14,0,0,0-.62.91h-2.12v-8.62h10.44v1.3h-9v6.26h.28a3.88,3.88,0,0,1,2-1.9,5.33,5.33,0,0,1,2.05-.34,4.93,4.93,0,0,1,2.54.66,4.7,4.7,0,0,1,1.8,1.87,5.84,5.84,0,0,1,.67,2.88V177a5.79,5.79,0,0,1-.68,2.86,5,5,0,0,1-1.94,2A6.06,6.06,0,0,1,270.27,182.58Z"/><path class="cls-2" d="M283.34,182.58a5.71,5.71,0,0,1-4.31-1.65,6.87,6.87,0,0,1-1.58-4.91v-3.7a6.87,6.87,0,0,1,1.58-4.91,6.45,6.45,0,0,1,8.62,0,6.82,6.82,0,0,1,1.59,4.91V176a6.82,6.82,0,0,1-1.59,4.91A5.68,5.68,0,0,1,283.34,182.58Zm0-1.29a4,4,0,0,0,3.34-1.38,5.82,5.82,0,0,0,1.12-3.8v-3.88a5.82,5.82,0,0,0-1.12-3.8,4.72,4.72,0,0,0-6.67,0,5.82,5.82,0,0,0-1.13,3.8v3.88a5.82,5.82,0,0,0,1.13,3.8A4,4,0,0,0,283.34,181.29Z"/></g></g></svg>