<svg xmlns="http://www.w3.org/2000/svg" viewBox="0 0 1211.52 632.63"><defs><style>.cls-1{fill:#ee5864;}</style></defs><g id="레이어_2" data-name="레이어 2"><g id="레이어_1-2" data-name="레이어 1"><path class="cls-1" d="M822.56,589c-7.3,1-14.6,2.11-22,2.59-12.93.84-25.9-.2-38.86-.46-27.93-.56-55.61,3.09-82.94,8.4-20,4.06-39.89,9-59.77,13.82-29.14,7-58.15,14.75-88.28,16.27-7.33.37-14.71-.34-22.06-.16-6.39.16-12.77.82-19.15,1.35-6.12.5-12.54,2.61-18.29,1.42-19.46-4-39.7-3.18-58.92-8.54-8.75-2.45-14.24-6.13-23.37-5.84-10.84.34-21.34-.32-31.84-3.26C344.13,611,332,604.57,319,601c-9.38-2.56-19.1-3.6-28.62-5.54-18.88-3.86-36.74-11.24-54.93-17.39-17.44-5.9-37.25-7.85-53.32-17.22-7.38-4.31-12.89-13-17.35-20.77-5.33-9.33-14.43-14.06-24.76-16.53-11.65-2.78-24.3-3.14-35.91,0a18,18,0,0,1-6.37.48c-8.28-.83-14.1,1.22-16.69,10.34-2.65,9.34-13.45,8.53-21,6.94q-8-1.68-15.84-3.7c-3.35-.86-6.78-1.81-9.54-3.89s-4.57-5.06-6.49-7.9c-6.09-9-15.58-16.33-21-25.56C2.38,492.08,1,480.69.68,471.4c-.52-16.32,1.61-32.73,2.71-49.09.75-11.07,2.78-22.3,2.29-33.39-.51-11.4-3.23-22.57-4.5-33.89C-.67,338.51.5,321.89.85,305.32c.31-14.18-4.26-31.14,5.06-43.22,1.68-2.17,1.57-5.89,1.85-8.94,1.06-11.35,6.27-20,16.69-24.82,19.81-9.17,37.41-11,58.81-13.4,13.58-1.53,26.8-5.49,40.43-6.7s27.84-.37,41.59-.57c6.77-.1,13.55-.25,20.33-.24s12-2.45,18.1-4.92c13.12-5.27,27.08-5,40.69-7.8,7.77-1.63,14.87-6.49,22.23-10,22.72-10.79,43.46-30.2,69.55-34.1,6.21-.93,12.56-1,18.71-2.29,10.69-2.27,20.2-8.18,30.28-12.41,12.44-5.22,28.19-4,39.42-10.27,11.39-6.3,18.81-14.35,32.7-15.71,6.4-.63,12.62-3.77,18.77-6.17,16.84-6.56,33.15-15,50.5-19.51,14.19-3.65,29.17-4.62,43.74-5.83,14.09-1.17,25.23-6.88,38.14-12.15,14-5.72,29-8.5,43.87-11.58q31.31-6.51,62.14-15c17.17-4.75,40.3-7,49.38-24.49,2.43-4.7,6.71-8.65,10.76-12.26,8.35-7.44,22,1.56,31.46,2.24C818.93,6.09,832,7,843,14.5c5,3.43,9.72,8.19,15.79,8.8,7.69.77,15-5.51,22.59-4,4.25.84,7.67,4,11.73,5.46,5.86,2.15,12.5.72,18.49,2.47,8.35,2.44,13.65,10.37,20.28,16,14.88,12.66,43.76,9.3,52.2,28.6,1.18,2.69,1.74,5.63,3.15,8.2,3.33,6.06,10.83,8.79,17.74,8.53s13.44-3,19.91-5.39c11.54-4.34,23.48-8,35.76-9.45,11.73-1.42,23.85,1.81,35.35-.82,4-.92,7.71-2.94,11.73-3.78,11.08-2.31,21.94,4.68,30.08,12.55,4.92,4.76,9.43,10,14.91,14.09,4,3,8.49,5.34,12.56,8.28a52.49,52.49,0,0,1,18.92,26.69c3.88,12.27-.44,24.72,4.07,36.49,3.12,8.13,9.07,15.38,11.12,23.67,4,16.09,9.05,30.43,9.93,47.06,1,19,3.31,37.7,1.62,56.81-.46,5.19-1.17,10.37-1.36,15.58-.16,4.37,0,8.76-.2,13.13-1.09,20.79-10.84,47.24-22.17,64.75a100.78,100.78,0,0,1-8.36,10.66c-4,4.7-8,9.39-12.36,13.82a171.23,171.23,0,0,1-22.7,19.38c-5.54,4-11.32,7.74-16.06,12.64-9.46,9.79-8.85,23.44-14,35.42a68.23,68.23,0,0,1-24.39,29.47c-16.74,11.45-26.73,28.23-47.39,33.86-10.15,2.76-20.82,2.95-31.1,5.17-13.57,2.92-26,9.26-39.05,13.8-13.47,4.69-27.85,7.05-41.63,10.78-4.57,1.24-9,3.21-13.62,4-18,3.08-36.06,6.22-54.2,8.55-9.64,1.24-19.22.89-28.91,1.93C829.78,588.05,826.17,588.54,822.56,589Z"/></g></g></svg>