<svg xmlns="http://www.w3.org/2000/svg" viewBox="0 0 964.85 805.31"><defs><style>.cls-1{fill:#ee5864;}</style></defs><g id="레이어_2" data-name="레이어 2"><g id="레이어_1-2" data-name="레이어 1"><path class="cls-1" d="M520.4,805.17c-19.23,0-38.46.07-57.69,0q-30.91-.14-61.83-.52c-21.56-.26-43.12-.65-64.68-1-12-.18-24.06-.33-36.1-.56-15.58-.3-31.16-.67-46.74-1-8.49-.18-17-.34-25.45-.54q-20.91-.49-41.8-1l-18.7-.51-40-1c-6.84-.18-13.68-.26-20.51-.58-7-.32-14-.79-21-1.34-6.12-.48-12.27-.84-18.32-1.82-5.32-.86-10.71-.57-16-1.51C34.23,790.58,21,781.86,14,765A61,61,0,0,1,9.34,744.9c-.32-5.78-.7-11.57-1-17.36Q7.51,711,6.75,694.35c-.4-8.73-.71-17.46-1.13-26.19S4.68,650.71,4.26,642c-.24-4.93-.4-9.86-.56-14.79-.21-6.58-.35-13.15-.59-19.73-.31-8.38-.7-16.77-1-25.15-.19-4.93-.37-9.86-.44-14.79q-.39-27.15-.72-54.29C.8,504,.5,494.7.47,485.44Q.19,401.38,0,317.33c0-6.93,0-13.86.06-20.79q.42-27.78,1-55.57c.19-10.74.36-21.47.64-32.2.24-9.17.66-18.34,1-27.51.22-6.49.36-13,.58-19.47.31-9.25.68-18.51,1-27.76.2-5.45.32-10.9.55-16.35.42-10.2.91-20.4,1.34-30.61.12-2.76,0-5.54.2-8.31C6.8,71.17,7.3,63.57,8,56A21.51,21.51,0,0,1,9.4,50.75C13,40.48,18.76,31.66,27.57,25.06A43.8,43.8,0,0,1,44,17.49a69,69,0,0,1,12-1.56c5.35-.3,10.69-.89,16-1.3,5.18-.41,10.36-.75,15.53-1.12,6.47-.46,12.94-1,19.41-1.39,4.58-.31,9.16-.49,13.74-.79,6.9-.44,13.8-.95,20.71-1.39,4-.26,8-.44,11.92-.64q11-.57,22-1.1l29.82-1.41c2-.09,4-.07,6-.12l40.25-1.12c5.62-.15,11.24-.34,16.87-.5L306.44,4q10.26-.27,20.51-.5l46.48-1.07L392.9,2c9.61-.2,19.22-.42,28.83-.56q22.61-.31,45.2-.53Q509.8.54,552.67.3C569.56.19,586.44,0,603.33,0,628.19.07,653,.3,677.9.53c9.52.08,19,.25,28.56.59,7.69.27,15.38.87,23.06,1.29,2.34.12,4.68.07,7,.19,8.38.43,16.75.92,25.14,1.35,2.42.13,4.85.09,7.27.22,7.77.42,15.54.91,23.32,1.34,2.07.12,4.15.09,6.23.21,7.25.43,14.5.92,21.75,1.36,4.06.24,8.12.42,12.19.65,6.73.37,13.47.7,20.21,1.16,5.09.35,10.16.89,15.25,1.3s10.18.73,15.26,1.16c4.39.38,8.77.85,13.16,1.29,2.41.24,4.82.44,7.22.76,3.77.5,7.55.95,11.28,1.66,15.07,2.86,26.12,10.92,32.32,25.21a88.41,88.41,0,0,1,6,22c.86,5.54,1.7,11.1,2.32,16.67.44,4,.51,7.94.75,11.92.48,7.85,1,15.71,1.44,23.57.41,7.43.75,14.86,1.08,22.3.51,11,1,22,1.47,32.94,0,1.12,0,2.25.06,3.38.24,15.67.44,31.34.73,47,.28,15.49.66,31,1,46.48q.31,15.19.58,30.38.51,27.8,1,55.58c.22,13.07.35,26.15.56,39.22.13,8.57.43,17.14.47,25.71q.23,45.46.3,90.93c0,15.85-.3,31.7-.49,47.54-.11,9.27-.15,18.53-.45,27.79-.28,8.39-.88,16.76-1.33,25.14,0,.35-.05.69-.06,1-.22,8.57-.42,17.14-.67,25.7q-.51,17.26-1.07,34.52c-.17,5.28-.28,10.56-.57,15.83-.35,6.39-.86,12.78-1.3,19.16-.08,1.21-.08,2.43-.16,3.64q-.87,12.67-1.75,25.36c-.25,3.54-.43,7.08-.73,10.62a49.63,49.63,0,0,1-10.93,27,44.81,44.81,0,0,1-27.73,16.48c-4,.76-8,1.09-12.07,1.55q-6.45.72-12.9,1.32t-13.18,1.12c-6.56.51-13.11,1-19.67,1.46-4.57.31-9.16.47-13.74.75-7.33.45-14.67.94-22,1.41l-.26,0-20.22,1.06-26.43,1.44c-.35,0-.69.06-1,.07-7.79.24-15.57.41-23.36.74-8.9.38-17.8.91-26.7,1.35-1.82.09-3.64.07-5.45.13q-16.37.55-32.71,1.11c-4.49.15-9,.33-13.49.48l-33.74,1.08c-5.11.16-10.21.34-15.31.48-13.33.36-26.66.82-40,1-19.22.28-38.44.36-57.66.52-2.43,0-4.85,0-7.28,0Z"/></g></g></svg>